<svg width="22" height="23" viewBox="0 0 22 23" fill="none" xmlns="http://www.w3.org/2000/svg">
<circle cx="10.2825" cy="12.7205" r="2.08696" fill="black" stroke="black" stroke-width="3"/>
<mask id="path-2-inside-1" fill="white">
<ellipse cx="2.3913" cy="10.3292" rx="2.3913" ry="2.63043"/>
</mask>
<ellipse cx="2.3913" cy="10.3292" rx="2.3913" ry="2.63043" fill="black"/>
<path d="M1.78261 10.3292C1.78261 10.3171 1.78787 10.2531 1.86239 10.1711C1.94117 10.0845 2.12517 9.9596 2.3913 9.9596V15.9596C5.63151 15.9596 7.78261 13.1633 7.78261 10.3292H1.78261ZM2.3913 9.9596C2.65744 9.9596 2.84143 10.0845 2.92022 10.1711C2.99474 10.2531 3 10.3171 3 10.3292H-3C-3 13.1633 -0.848897 15.9596 2.3913 15.9596V9.9596ZM3 10.3292C3 10.3413 2.99474 10.4052 2.92022 10.4872C2.84143 10.5738 2.65744 10.6987 2.3913 10.6987V4.69873C-0.848897 4.69873 -3 7.49503 -3 10.3292H3ZM2.3913 10.6987C2.12517 10.6987 1.94117 10.5738 1.86239 10.4872C1.78787 10.4052 1.78261 10.3413 1.78261 10.3292H7.78261C7.78261 7.49503 5.63151 4.69873 2.3913 4.69873V10.6987Z" fill="black" mask="url(#path-2-inside-1)"/>
<mask id="path-4-inside-2" fill="white">
<ellipse cx="19.6086" cy="14.6336" rx="2.3913" ry="2.63043"/>
</mask>
<ellipse cx="19.6086" cy="14.6336" rx="2.3913" ry="2.63043" fill="black"/>
<path d="M18.9999 14.6336C18.9999 14.6215 19.0052 14.5576 19.0797 14.4756C19.1585 14.3889 19.3425 14.264 19.6086 14.264V20.264C22.8488 20.264 24.9999 17.4677 24.9999 14.6336H18.9999ZM19.6086 14.264C19.8747 14.264 20.0587 14.3889 20.1375 14.4756C20.212 14.5576 20.2173 14.6215 20.2173 14.6336H14.2173C14.2173 17.4677 16.3684 20.264 19.6086 20.264V14.264ZM20.2173 14.6336C20.2173 14.6457 20.212 14.7097 20.1375 14.7916C20.0587 14.8783 19.8747 15.0032 19.6086 15.0032V9.00317C16.3684 9.00317 14.2173 11.7995 14.2173 14.6336H20.2173ZM19.6086 15.0032C19.3425 15.0032 19.1585 14.8783 19.0797 14.7916C19.0052 14.7097 18.9999 14.6457 18.9999 14.6336H24.9999C24.9999 11.7995 22.8488 9.00317 19.6086 9.00317V15.0032Z" fill="black" mask="url(#path-4-inside-2)"/>
<circle cx="16.2609" cy="7.22065" r="1.5" fill="black" stroke="black" stroke-width="1.78261"/>
<circle cx="12.4348" cy="20.1335" r="1.5" fill="black" stroke="black" stroke-width="1.78261"/>
<circle cx="8.36948" cy="6.025" r="1.19565" fill="black"/>
<circle cx="17.4566" cy="1.72055" r="1.19565" fill="black"/>
<circle cx="5.02182" cy="17.5033" r="1.19565" fill="black"/>
</svg>
