<svg width="800" height="398" viewBox="0 0 800 398" fill="none" xmlns="http://www.w3.org/2000/svg">
<path opacity="0.2" d="M395 350C588.3 350 745 193.3 745 0C745 -193.3 588.3 -350 395 -350C201.7 -350 45 -193.3 45 0C45 193.3 201.7 350 395 350Z" fill="#FFB243"/>
<path opacity="0.3" d="M394.999 300.143C560.763 300.143 695.142 165.765 695.142 0.000396729C695.142 -165.764 560.763 -300.142 394.999 -300.142C229.235 -300.142 94.8568 -165.764 94.8568 0.000396729C94.8568 165.765 229.235 300.143 394.999 300.143Z" fill="#FFB243"/>
<path opacity="0.5" d="M395 247.489C531.684 247.489 642.489 136.684 642.489 0.000213623C642.489 -136.684 531.684 -247.488 395 -247.488C258.316 -247.488 147.512 -136.684 147.512 0.000213623C147.512 136.684 258.316 247.489 395 247.489Z" fill="#FFB243"/>
<path d="M395 182.105C495.574 182.105 577.105 100.574 577.105 0.000183105C577.105 -100.574 495.574 -182.105 395 -182.105C294.426 -182.105 212.895 -100.574 212.895 0.000183105C212.895 100.574 294.426 182.105 395 182.105Z" fill="#FFB243"/>
<rect width="660" height="196.943" rx="98.4716" transform="matrix(1 0 0 -1 -410 315.943)" fill="#88AACF" fill-opacity="0.5"/>
<rect width="837" height="202.639" rx="101.32" transform="matrix(1 0 0 -1 381 397.639)" fill="#DEEDF9"/>
<rect width="679.088" height="202.639" rx="101.32" transform="matrix(1 0 0 -1 581 261.639)" fill="#88AACF" fill-opacity="0.6"/>
</svg>
