<svg width="800" height="478" viewBox="0 0 800 478" fill="none" xmlns="http://www.w3.org/2000/svg">
<path d="M85.8268 272.619H59V344H85.8268V272.619Z" fill="#B6CCEB" fill-opacity="0.3"/>
<path d="M179.421 272.619H152.594V344H179.421V272.619Z" fill="#B6CCEB" fill-opacity="0.3"/>
<path d="M273.014 272.619H246.188V344H273.014V272.619Z" fill="#B6CCEB" fill-opacity="0.3"/>
<path d="M366.624 272.619H339.797V344H366.624V272.619Z" fill="#B6CCEB" fill-opacity="0.3"/>
<path d="M460.219 272.619H433.393V344H460.219V272.619Z" fill="#B6CCEB" fill-opacity="0.3"/>
<path d="M553.811 272.619H526.984V344H553.811V272.619Z" fill="#B6CCEB" fill-opacity="0.3"/>
<path d="M647.407 272.619H620.58V344H647.407V272.619Z" fill="#B6CCEB" fill-opacity="0.3"/>
<path d="M740.999 272.619H714.172V344H740.999V272.619Z" fill="#B6CCEB" fill-opacity="0.3"/>
<path d="M85.8268 362H59V433.381H85.8268V362Z" fill="#B6CCEB" fill-opacity="0.1"/>
<path d="M179.421 362H152.594V433.381H179.421V362Z" fill="#B6CCEB" fill-opacity="0.1"/>
<path d="M273.014 362H246.188V433.381H273.014V362Z" fill="#B6CCEB" fill-opacity="0.1"/>
<path d="M366.624 362H339.797V433.381H366.624V362Z" fill="#B6CCEB" fill-opacity="0.1"/>
<path d="M460.219 362H433.393V433.381H460.219V362Z" fill="#B6CCEB" fill-opacity="0.1"/>
<path d="M553.811 362H526.984V433.381H553.811V362Z" fill="#B6CCEB" fill-opacity="0.1"/>
<path d="M647.407 362H620.58V433.381H647.407V362Z" fill="#B6CCEB" fill-opacity="0.1"/>
<path d="M740.999 362H714.172V433.381H740.999V362Z" fill="#B6CCEB" fill-opacity="0.1"/>
<path d="M81.9351 182.904H62.8906V254.286H81.9351V182.904Z" fill="#B6CCEB" fill-opacity="0.5"/>
<path d="M175.529 182.904H156.484V254.286H175.529V182.904Z" fill="#B6CCEB" fill-opacity="0.5"/>
<path d="M269.123 182.904H250.078V254.286H269.123V182.904Z" fill="#B6CCEB" fill-opacity="0.5"/>
<path d="M362.718 182.904H343.674V254.286H362.718V182.904Z" fill="#B6CCEB" fill-opacity="0.5"/>
<path d="M456.328 182.904H437.283V254.286H456.328V182.904Z" fill="#B6CCEB" fill-opacity="0.5"/>
<path d="M549.921 182.904H530.877V254.286H549.921V182.904Z" fill="#B6CCEB" fill-opacity="0.5"/>
<path d="M643.517 182.904H624.473V254.286H643.517V182.904Z" fill="#B6CCEB" fill-opacity="0.5"/>
<path d="M737.111 182.904H718.066V254.286H737.111V182.904Z" fill="#B6CCEB" fill-opacity="0.5"/>
<path d="M78.8162 89.7148H65.9941V161.096H78.8162V89.7148Z" fill="#B6CCEB" fill-opacity="0.8"/>
<path d="M172.427 89.7148H159.605V161.096H172.427V89.7148Z" fill="#B6CCEB" fill-opacity="0.8"/>
<path d="M266.021 89.7148H253.199V161.096H266.021V89.7148Z" fill="#B6CCEB" fill-opacity="0.8"/>
<path d="M359.615 89.7148H346.793V161.096H359.615V89.7148Z" fill="#B6CCEB" fill-opacity="0.8"/>
<path d="M453.209 89.7148H440.387V161.096H453.209V89.7148Z" fill="#B6CCEB" fill-opacity="0.8"/>
<path d="M546.818 89.7148H533.996V161.096H546.818V89.7148Z" fill="#B6CCEB" fill-opacity="0.8"/>
<path d="M640.412 89.7148H627.59V161.096H640.412V89.7148Z" fill="#B6CCEB" fill-opacity="0.8"/>
<path d="M734.006 89.7148H721.184V161.096H734.006V89.7148Z" fill="#B6CCEB" fill-opacity="0.8"/>
<path opacity="0.26" d="M-68.9184 13.77C-78.0181 21.7364 12.6692 88.1274 19.4977 92.0217C50.9965 109.993 88.3555 120.787 127.356 122.14C174.804 123.784 223.111 115.913 269.799 103.277C338.264 84.7473 409.154 36.455 476.454 72.206C505.441 87.6034 525.829 111.473 555.555 126.184C582.159 139.348 612.068 147.58 643.135 151.075C704.845 158.017 770.977 146.519 829.107 119.788C835.537 116.83 906.798 75.7606 903.436 72.8583C903.434 72.8562 1101 -411.272 1101 -411.272C1101 -411.272 -225 -335.272 -68.9184 13.77Z" fill="#9EBCE4" fill-opacity="0.4"/>
<path d="M-102.623 43.5493C-106.339 46.8416 -21.4756 77.6695 -15.9511 78.7606C28.4378 87.5367 75.1112 82.6744 119.813 67.8029C155.159 56.0447 186.15 36.3211 220.689 23.3002C271.337 4.20718 326.49 -0.334686 377.693 7.62287C422.683 14.6124 464.244 30.884 501.455 52.1691C558.326 84.7051 606.621 115.18 680.09 113.688C748.941 112.292 813.657 83.0822 864.331 38.3064L945 -313.272C945 -313.272 -399 -337.272 -102.623 43.5493Z" fill="#9EBCE4" fill-opacity="0.2"/>
<path opacity="0.49" d="M-92.8343 18.6303C-41.0973 -15.0847 49.3476 -8.41564 101.319 8.55366C168.828 30.591 216.582 83.4305 284.581 104.491C326.322 117.42 374.081 117.367 418.999 105.578C484.56 88.3725 540.871 48.2597 599.319 14.6337C657.766 -18.9923 726.129 -47.8013 790.443 -37.3839C924.999 -153.576 1007 -223.576 531.377 -270.075C488.377 -309.011 445.401 -347.971 402.497 -386.991C390.595 -397.817 390.365 -404.321 375.648 -395.6C362.097 -387.573 349.63 -372.611 338.006 -362.34C313.895 -341.036 -128.889 -334.878 -153.001 -313.576C-272.619 -207.882 29.5212 -84.5809 -92.8343 18.6303Z" fill="#9EBCE4" fill-opacity="0.5"/>
</svg>
