<svg width="800" height="478" viewBox="0 0 800 478" fill="none" xmlns="http://www.w3.org/2000/svg">
<path opacity="0.26" d="M-68.9184 13.7699C-78.0181 21.7362 12.6692 88.1272 19.4977 92.0216C50.9965 109.993 88.3555 120.787 127.356 122.14C174.804 123.784 223.111 115.913 269.799 103.277C338.264 84.7472 409.154 36.4549 476.454 72.2059C505.441 87.6033 525.829 111.473 555.555 126.184C582.159 139.348 612.068 147.58 643.135 151.075C704.845 158.017 770.977 146.519 829.107 119.788C835.537 116.83 906.798 75.7605 903.436 72.8581C903.434 72.8561 1101 -411.273 1101 -411.273C1101 -411.273 -225 -335.272 -68.9184 13.7699Z" fill="#9EBCE4" fill-opacity="0.4"/>
<path d="M-102.623 43.5492C-106.339 46.8415 -21.4756 77.6694 -15.9511 78.7604C28.4378 87.5366 75.1112 82.6743 119.813 67.8027C155.159 56.0446 186.15 36.321 220.689 23.3001C271.337 4.20706 326.49 -0.334809 377.693 7.62274C422.683 14.6123 464.244 30.8839 501.455 52.169C558.326 84.705 606.621 115.18 680.09 113.688C748.941 112.292 813.657 83.0821 864.331 38.3063L945 -313.273C945 -313.273 -399 -337.273 -102.623 43.5492Z" fill="#9EBCE4" fill-opacity="0.2"/>
<path opacity="0.49" d="M-124.932 22.6302C-73.1949 -11.0848 17.2499 -4.41576 69.2213 12.5535C136.73 34.5909 184.484 87.4304 252.483 108.491C294.225 121.42 341.983 121.366 386.901 109.578C452.463 92.3724 508.773 52.2596 567.221 18.6336C625.669 -14.9924 694.031 -43.8014 758.345 -33.384C892.901 -149.576 974.901 -219.576 499.279 -266.075C456.28 -305.011 413.304 -343.972 370.4 -382.992C358.497 -393.818 358.267 -400.321 343.55 -391.601C329.999 -383.573 317.532 -368.611 305.908 -358.34C281.798 -337.036 -160.986 -330.878 -185.099 -309.576C-304.717 -203.882 -2.57647 -80.581 -124.932 22.6302Z" fill="#9EBCE4" fill-opacity="0.5"/>
<ellipse cx="213.802" cy="105.5" rx="12.8019" ry="12.5" fill="#C1D3EE"/>
<ellipse opacity="0.8" cx="213.802" cy="150.5" rx="12.8019" ry="12.5" fill="#C1D3EE"/>
<ellipse opacity="0.7" cx="213.802" cy="195.5" rx="12.8019" ry="12.5" fill="#C1D3EE"/>
<ellipse opacity="0.6" cx="213.802" cy="240.5" rx="12.8019" ry="12.5" fill="#C1D3EE"/>
<ellipse opacity="0.5" cx="213.802" cy="285.5" rx="12.8019" ry="12.5" fill="#C1D3EE"/>
<ellipse opacity="0.35" cx="213.802" cy="330.5" rx="12.8019" ry="12.5" fill="#C1D3EE"/>
<ellipse opacity="0.25" cx="213.802" cy="375.5" rx="12.8019" ry="12.5" fill="#C1D3EE"/>
<ellipse opacity="0.15" cx="213.802" cy="420.5" rx="12.8019" ry="12.5" fill="#C1D3EE"/>
<ellipse cx="275.802" cy="60.5" rx="12.8019" ry="12.5" fill="#C1D3EE"/>
<ellipse opacity="0.8" cx="275.802" cy="105.5" rx="12.8019" ry="12.5" fill="#C1D3EE"/>
<ellipse opacity="0.7" cx="275.802" cy="150.5" rx="12.8019" ry="12.5" fill="#C1D3EE"/>
<ellipse opacity="0.6" cx="275.802" cy="195.5" rx="12.8019" ry="12.5" fill="#C1D3EE"/>
<ellipse opacity="0.5" cx="275.802" cy="240.5" rx="12.8019" ry="12.5" fill="#C1D3EE"/>
<ellipse opacity="0.35" cx="275.802" cy="285.5" rx="12.8019" ry="12.5" fill="#C1D3EE"/>
<ellipse opacity="0.25" cx="275.802" cy="330.5" rx="12.8019" ry="12.5" fill="#C1D3EE"/>
<ellipse opacity="0.15" cx="275.802" cy="375.5" rx="12.8019" ry="12.5" fill="#C1D3EE"/>
<ellipse cx="585.802" cy="105.5" rx="12.8019" ry="12.5" fill="#C1D3EE"/>
<ellipse opacity="0.8" cx="585.802" cy="150.5" rx="12.8019" ry="12.5" fill="#C1D3EE"/>
<ellipse opacity="0.7" cx="585.802" cy="195.5" rx="12.8019" ry="12.5" fill="#C1D3EE"/>
<ellipse opacity="0.6" cx="585.802" cy="240.5" rx="12.8019" ry="12.5" fill="#C1D3EE"/>
<ellipse opacity="0.5" cx="585.802" cy="285.5" rx="12.8019" ry="12.5" fill="#C1D3EE"/>
<ellipse opacity="0.35" cx="585.802" cy="330.5" rx="12.8019" ry="12.5" fill="#C1D3EE"/>
<ellipse opacity="0.25" cx="585.802" cy="375.5" rx="12.8019" ry="12.5" fill="#C1D3EE"/>
<ellipse opacity="0.15" cx="585.802" cy="420.5" rx="12.8019" ry="12.5" fill="#C1D3EE"/>
<ellipse cx="647.802" cy="60.5" rx="12.8019" ry="12.5" fill="#C1D3EE"/>
<ellipse opacity="0.8" cx="647.802" cy="105.5" rx="12.8019" ry="12.5" fill="#C1D3EE"/>
<ellipse opacity="0.7" cx="647.802" cy="150.5" rx="12.8019" ry="12.5" fill="#C1D3EE"/>
<ellipse opacity="0.6" cx="647.802" cy="195.5" rx="12.8019" ry="12.5" fill="#C1D3EE"/>
<ellipse opacity="0.5" cx="647.802" cy="240.5" rx="12.8019" ry="12.5" fill="#C1D3EE"/>
<ellipse opacity="0.35" cx="647.802" cy="285.5" rx="12.8019" ry="12.5" fill="#C1D3EE"/>
<ellipse opacity="0.25" cx="647.802" cy="330.5" rx="12.8019" ry="12.5" fill="#C1D3EE"/>
<ellipse opacity="0.15" cx="647.802" cy="375.5" rx="12.8019" ry="12.5" fill="#C1D3EE"/>
<ellipse cx="709.802" cy="105.5" rx="12.8019" ry="12.5" fill="#C1D3EE"/>
<ellipse opacity="0.8" cx="709.802" cy="150.5" rx="12.8019" ry="12.5" fill="#C1D3EE"/>
<ellipse opacity="0.7" cx="709.802" cy="195.5" rx="12.8019" ry="12.5" fill="#C1D3EE"/>
<ellipse opacity="0.6" cx="709.802" cy="240.5" rx="12.8019" ry="12.5" fill="#C1D3EE"/>
<ellipse opacity="0.5" cx="709.802" cy="285.5" rx="12.8019" ry="12.5" fill="#C1D3EE"/>
<ellipse opacity="0.35" cx="709.802" cy="330.5" rx="12.8019" ry="12.5" fill="#C1D3EE"/>
<ellipse opacity="0.25" cx="709.802" cy="375.5" rx="12.8019" ry="12.5" fill="#C1D3EE"/>
<ellipse opacity="0.15" cx="709.802" cy="420.5" rx="12.8019" ry="12.5" fill="#C1D3EE"/>
<path d="M102.615 105.5C102.615 112.404 96.883 118 89.8126 118C82.7423 118 77.0107 112.404 77.0107 105.5C77.0107 98.5964 82.7423 93 89.8126 93C96.883 93 102.615 98.5964 102.615 105.5Z" fill="#C1D3EE"/>
<path d="M102.604 105.5C102.604 112.404 96.8723 118 89.8019 118C82.7316 118 77 112.404 77 105.5C77 98.5964 82.7316 93 89.8019 93C96.8723 93 102.604 98.5964 102.604 105.5Z" fill="#C1D3EE"/>
<g opacity="0.8">
<path d="M102.615 150.5C102.615 157.404 96.883 163 89.8126 163C82.7423 163 77.0107 157.404 77.0107 150.5C77.0107 143.596 82.7423 138 89.8126 138C96.883 138 102.615 143.596 102.615 150.5Z" fill="#C1D3EE"/>
<path d="M102.604 150.5C102.604 157.404 96.8723 163 89.8019 163C82.7316 163 77 157.404 77 150.5C77 143.596 82.7316 138 89.8019 138C96.8723 138 102.604 143.596 102.604 150.5Z" fill="#C1D3EE"/>
</g>
<g opacity="0.7">
<path d="M102.615 195.5C102.615 202.404 96.883 208 89.8126 208C82.7423 208 77.0107 202.404 77.0107 195.5C77.0107 188.596 82.7423 183 89.8126 183C96.883 183 102.615 188.596 102.615 195.5Z" fill="#C1D3EE"/>
<path d="M102.604 195.5C102.604 202.404 96.8723 208 89.8019 208C82.7316 208 77 202.404 77 195.5C77 188.596 82.7316 183 89.8019 183C96.8723 183 102.604 188.596 102.604 195.5Z" fill="#C1D3EE"/>
</g>
<g opacity="0.6">
<path d="M102.615 240.5C102.615 247.404 96.883 253 89.8126 253C82.7423 253 77.0107 247.404 77.0107 240.5C77.0107 233.596 82.7423 228 89.8126 228C96.883 228 102.615 233.596 102.615 240.5Z" fill="#C1D3EE"/>
<path d="M102.604 240.5C102.604 247.404 96.8723 253 89.8019 253C82.7316 253 77 247.404 77 240.5C77 233.596 82.7316 228 89.8019 228C96.8723 228 102.604 233.596 102.604 240.5Z" fill="#C1D3EE"/>
</g>
<g opacity="0.5">
<path d="M102.615 285.5C102.615 292.404 96.883 298 89.8126 298C82.7423 298 77.0107 292.404 77.0107 285.5C77.0107 278.596 82.7423 273 89.8126 273C96.883 273 102.615 278.596 102.615 285.5Z" fill="#C1D3EE"/>
<path d="M102.604 285.5C102.604 292.404 96.8723 298 89.8019 298C82.7316 298 77 292.404 77 285.5C77 278.596 82.7316 273 89.8019 273C96.8723 273 102.604 278.596 102.604 285.5Z" fill="#C1D3EE"/>
</g>
<g opacity="0.35">
<path d="M102.615 330.5C102.615 337.404 96.883 343 89.8126 343C82.7423 343 77.0107 337.404 77.0107 330.5C77.0107 323.596 82.7423 318 89.8126 318C96.883 318 102.615 323.596 102.615 330.5Z" fill="#C1D3EE"/>
<path d="M102.604 330.5C102.604 337.404 96.8723 343 89.8019 343C82.7316 343 77 337.404 77 330.5C77 323.596 82.7316 318 89.8019 318C96.8723 318 102.604 323.596 102.604 330.5Z" fill="#C1D3EE"/>
</g>
<g opacity="0.25">
<path d="M102.615 375.5C102.615 382.404 96.883 388 89.8126 388C82.7423 388 77.0107 382.404 77.0107 375.5C77.0107 368.596 82.7423 363 89.8126 363C96.883 363 102.615 368.596 102.615 375.5Z" fill="#C1D3EE"/>
<path d="M102.604 375.5C102.604 382.404 96.8723 388 89.8019 388C82.7316 388 77 382.404 77 375.5C77 368.596 82.7316 363 89.8019 363C96.8723 363 102.604 368.596 102.604 375.5Z" fill="#C1D3EE"/>
</g>
<g opacity="0.15">
<path d="M102.615 420.5C102.615 427.404 96.883 433 89.8126 433C82.7423 433 77.0107 427.404 77.0107 420.5C77.0107 413.596 82.7423 408 89.8126 408C96.883 408 102.615 413.596 102.615 420.5Z" fill="#C1D3EE"/>
<path d="M102.604 420.5C102.604 427.404 96.8723 433 89.8019 433C82.7316 433 77 427.404 77 420.5C77 413.596 82.7316 408 89.8019 408C96.8723 408 102.604 413.596 102.604 420.5Z" fill="#C1D3EE"/>
</g>
<path d="M164.615 60.5C164.615 67.4036 158.883 73 151.813 73C144.742 73 139.011 67.4036 139.011 60.5C139.011 53.5964 144.742 48 151.813 48C158.883 48 164.615 53.5964 164.615 60.5Z" fill="#C1D3EE"/>
<path d="M164.604 60.5C164.604 67.4036 158.872 73 151.802 73C144.732 73 139 67.4036 139 60.5C139 53.5964 144.732 48 151.802 48C158.872 48 164.604 53.5964 164.604 60.5Z" fill="#C1D3EE"/>
<g opacity="0.8">
<path d="M164.615 105.5C164.615 112.404 158.883 118 151.813 118C144.742 118 139.011 112.404 139.011 105.5C139.011 98.5964 144.742 93 151.813 93C158.883 93 164.615 98.5964 164.615 105.5Z" fill="#C1D3EE"/>
<path d="M164.604 105.5C164.604 112.404 158.872 118 151.802 118C144.732 118 139 112.404 139 105.5C139 98.5964 144.732 93 151.802 93C158.872 93 164.604 98.5964 164.604 105.5Z" fill="#C1D3EE"/>
</g>
<g opacity="0.7">
<path d="M164.615 150.5C164.615 157.404 158.883 163 151.813 163C144.742 163 139.011 157.404 139.011 150.5C139.011 143.596 144.742 138 151.813 138C158.883 138 164.615 143.596 164.615 150.5Z" fill="#C1D3EE"/>
<path d="M164.604 150.5C164.604 157.404 158.872 163 151.802 163C144.732 163 139 157.404 139 150.5C139 143.596 144.732 138 151.802 138C158.872 138 164.604 143.596 164.604 150.5Z" fill="#C1D3EE"/>
</g>
<g opacity="0.6">
<path d="M164.615 195.5C164.615 202.404 158.883 208 151.813 208C144.742 208 139.011 202.404 139.011 195.5C139.011 188.596 144.742 183 151.813 183C158.883 183 164.615 188.596 164.615 195.5Z" fill="#C1D3EE"/>
<path d="M164.604 195.5C164.604 202.404 158.872 208 151.802 208C144.732 208 139 202.404 139 195.5C139 188.596 144.732 183 151.802 183C158.872 183 164.604 188.596 164.604 195.5Z" fill="#C1D3EE"/>
</g>
<g opacity="0.5">
<path d="M164.615 240.5C164.615 247.404 158.883 253 151.813 253C144.742 253 139.011 247.404 139.011 240.5C139.011 233.596 144.742 228 151.813 228C158.883 228 164.615 233.596 164.615 240.5Z" fill="#C1D3EE"/>
<path d="M164.604 240.5C164.604 247.404 158.872 253 151.802 253C144.732 253 139 247.404 139 240.5C139 233.596 144.732 228 151.802 228C158.872 228 164.604 233.596 164.604 240.5Z" fill="#C1D3EE"/>
</g>
<g opacity="0.35">
<path d="M164.615 285.5C164.615 292.404 158.883 298 151.813 298C144.742 298 139.011 292.404 139.011 285.5C139.011 278.596 144.742 273 151.813 273C158.883 273 164.615 278.596 164.615 285.5Z" fill="#C1D3EE"/>
<path d="M164.604 285.5C164.604 292.404 158.872 298 151.802 298C144.732 298 139 292.404 139 285.5C139 278.596 144.732 273 151.802 273C158.872 273 164.604 278.596 164.604 285.5Z" fill="#C1D3EE"/>
</g>
<g opacity="0.25">
<path d="M164.615 330.5C164.615 337.404 158.883 343 151.813 343C144.742 343 139.011 337.404 139.011 330.5C139.011 323.596 144.742 318 151.813 318C158.883 318 164.615 323.596 164.615 330.5Z" fill="#C1D3EE"/>
<path d="M164.604 330.5C164.604 337.404 158.872 343 151.802 343C144.732 343 139 337.404 139 330.5C139 323.596 144.732 318 151.802 318C158.872 318 164.604 323.596 164.604 330.5Z" fill="#C1D3EE"/>
</g>
<g opacity="0.15">
<path d="M164.615 375.5C164.615 382.404 158.883 388 151.813 388C144.742 388 139.011 382.404 139.011 375.5C139.011 368.596 144.742 363 151.813 363C158.883 363 164.615 368.596 164.615 375.5Z" fill="#C1D3EE"/>
<path d="M164.604 375.5C164.604 382.404 158.872 388 151.802 388C144.732 388 139 382.404 139 375.5C139 368.596 144.732 363 151.802 363C158.872 363 164.604 368.596 164.604 375.5Z" fill="#C1D3EE"/>
</g>
<ellipse cx="337.802" cy="105.5" rx="12.8019" ry="12.5" fill="#C1D3EE"/>
<ellipse opacity="0.8" cx="337.802" cy="150.5" rx="12.8019" ry="12.5" fill="#C1D3EE"/>
<ellipse opacity="0.7" cx="337.802" cy="195.5" rx="12.8019" ry="12.5" fill="#C1D3EE"/>
<ellipse opacity="0.6" cx="337.802" cy="240.5" rx="12.8019" ry="12.5" fill="#C1D3EE"/>
<ellipse opacity="0.5" cx="337.802" cy="285.5" rx="12.8019" ry="12.5" fill="#C1D3EE"/>
<ellipse opacity="0.35" cx="337.802" cy="330.5" rx="12.8019" ry="12.5" fill="#C1D3EE"/>
<ellipse opacity="0.25" cx="337.802" cy="375.5" rx="12.8019" ry="12.5" fill="#C1D3EE"/>
<ellipse opacity="0.15" cx="337.802" cy="420.5" rx="12.8019" ry="12.5" fill="#C1D3EE"/>
<ellipse cx="523.802" cy="60.5" rx="12.8019" ry="12.5" fill="#C1D3EE"/>
<ellipse opacity="0.8" cx="523.802" cy="105.5" rx="12.8019" ry="12.5" fill="#C1D3EE"/>
<ellipse opacity="0.7" cx="523.802" cy="150.5" rx="12.8019" ry="12.5" fill="#C1D3EE"/>
<ellipse opacity="0.6" cx="523.802" cy="195.5" rx="12.8019" ry="12.5" fill="#C1D3EE"/>
<ellipse opacity="0.5" cx="523.802" cy="240.5" rx="12.8019" ry="12.5" fill="#C1D3EE"/>
<ellipse opacity="0.35" cx="523.802" cy="285.5" rx="12.8019" ry="12.5" fill="#C1D3EE"/>
<ellipse opacity="0.25" cx="523.802" cy="330.5" rx="12.8019" ry="12.5" fill="#C1D3EE"/>
<ellipse opacity="0.15" cx="523.802" cy="375.5" rx="12.8019" ry="12.5" fill="#C1D3EE"/>
<ellipse cx="399.802" cy="60.5" rx="12.8019" ry="12.5" fill="#C1D3EE"/>
<ellipse opacity="0.8" cx="399.802" cy="105.5" rx="12.8019" ry="12.5" fill="#C1D3EE"/>
<ellipse opacity="0.7" cx="399.802" cy="150.5" rx="12.8019" ry="12.5" fill="#C1D3EE"/>
<ellipse opacity="0.6" cx="399.802" cy="195.5" rx="12.8019" ry="12.5" fill="#C1D3EE"/>
<ellipse opacity="0.5" cx="399.802" cy="240.5" rx="12.8019" ry="12.5" fill="#C1D3EE"/>
<ellipse opacity="0.35" cx="399.802" cy="285.5" rx="12.8019" ry="12.5" fill="#C1D3EE"/>
<ellipse opacity="0.25" cx="399.802" cy="330.5" rx="12.8019" ry="12.5" fill="#C1D3EE"/>
<ellipse opacity="0.15" cx="399.802" cy="375.5" rx="12.8019" ry="12.5" fill="#C1D3EE"/>
<ellipse cx="461.802" cy="105.5" rx="12.8019" ry="12.5" fill="#C1D3EE"/>
<ellipse opacity="0.8" cx="461.802" cy="150.5" rx="12.8019" ry="12.5" fill="#C1D3EE"/>
<ellipse opacity="0.7" cx="461.802" cy="195.5" rx="12.8019" ry="12.5" fill="#C1D3EE"/>
<ellipse opacity="0.6" cx="461.802" cy="240.5" rx="12.8019" ry="12.5" fill="#C1D3EE"/>
<ellipse opacity="0.5" cx="461.802" cy="285.5" rx="12.8019" ry="12.5" fill="#C1D3EE"/>
<ellipse opacity="0.35" cx="461.802" cy="330.5" rx="12.8019" ry="12.5" fill="#C1D3EE"/>
<ellipse opacity="0.25" cx="461.802" cy="375.5" rx="12.8019" ry="12.5" fill="#C1D3EE"/>
<ellipse opacity="0.15" cx="461.802" cy="420.5" rx="12.8019" ry="12.5" fill="#C1D3EE"/>
</svg>
