<svg width="800" height="400" viewBox="0 0 800 400" fill="none" xmlns="http://www.w3.org/2000/svg">
<path opacity="0.2" d="M400 400C620.914 400 800 220.914 800 0C800 -220.914 620.914 -400 400 -400C179.086 -400 0 -220.914 0 0C0 220.914 179.086 400 400 400Z" fill="#FFB243"/>
<path opacity="0.3" d="M399.999 343.02C589.444 343.02 743.02 189.445 743.02 -3.05176e-05C743.02 -189.445 589.444 -343.02 399.999 -343.02C210.555 -343.02 56.9795 -189.445 56.9795 -3.05176e-05C56.9795 189.445 210.555 343.02 399.999 343.02Z" fill="#FFB243"/>
<path opacity="0.5" d="M400 282.844C556.211 282.844 682.844 156.211 682.844 0.000244141C682.844 -156.21 556.211 -282.844 400 -282.844C243.79 -282.844 117.156 -156.21 117.156 0.000244141C117.156 156.211 243.79 282.844 400 282.844Z" fill="#FFB243"/>
<path d="M400 208.12C514.941 208.12 608.12 114.941 608.12 -0.000152588C608.12 -114.942 514.941 -208.12 400 -208.12C285.058 -208.12 191.88 -114.942 191.88 -0.000152588C191.88 114.941 285.058 208.12 400 208.12Z" fill="#FFB243"/>
</svg>
