<svg width="800" height="494" viewBox="0 0 800 494" fill="none" xmlns="http://www.w3.org/2000/svg">
<path opacity="0.26" d="M-66.016 29.77C-75.1157 37.7364 15.5715 104.127 22.4001 108.022C53.8989 125.993 91.2578 136.787 130.258 138.14C177.707 139.784 226.013 131.913 272.701 119.277C341.167 100.747 412.057 52.455 479.356 88.206C508.343 103.603 528.731 127.473 558.458 142.184C585.061 155.348 614.971 163.58 646.038 167.075C707.747 174.017 773.88 162.519 832.01 135.788C838.44 132.83 909.7 91.7606 906.339 88.8583C906.336 88.8562 1103.9 -395.272 1103.9 -395.272C1103.9 -395.272 -222.098 -319.272 -66.016 29.77Z" fill="#9EBCE4" fill-opacity="0.4"/>
<path d="M-99.7202 59.5493C-103.437 62.8416 -18.5733 93.6695 -13.0488 94.7606C31.3402 103.537 78.0135 98.6744 122.715 83.8029C158.061 72.0447 189.052 52.3211 223.591 39.3002C274.239 20.2072 329.392 15.6653 380.595 23.6229C425.586 30.6124 467.147 46.884 504.357 68.1691C561.229 100.705 609.523 131.18 682.992 129.688C751.843 128.292 816.559 99.0822 867.233 54.3064L947.903 -297.272C947.903 -297.272 -396.097 -321.272 -99.7202 59.5493Z" fill="#9EBCE4" fill-opacity="0.2"/>
<path opacity="0.49" d="M-89.9319 52.9341C-38.1949 19.2192 52.2499 25.8882 104.221 42.8575C171.73 64.8949 219.484 117.734 287.483 138.795C329.225 151.724 376.983 151.67 421.901 139.882C487.463 122.676 543.773 82.5635 602.221 48.9375C660.669 15.3115 729.031 -13.4975 793.345 -3.08006C927.901 -119.272 1009.9 -189.272 534.279 -235.771C491.28 -274.707 448.304 -313.668 405.4 -352.688C393.497 -363.514 393.267 -370.017 378.55 -361.297C364.999 -353.269 352.532 -338.307 340.908 -328.036C316.798 -306.732 -125.986 -300.574 -150.099 -279.272C-269.717 -173.578 32.4235 -50.2771 -89.9319 52.9341Z" fill="#9EBCE4" fill-opacity="0.5"/>
<path d="M394.891 256.192L356.663 421.594L480.53 228.986L394.891 256.192Z" fill="#FCE674" fill-opacity="0.9"/>
<path d="M418.209 249.479L456.437 84.0766L332.57 276.685L418.209 249.479Z" fill="#FCE674" fill-opacity="0.9"/>
</svg>
