<svg width="800" height="493" viewBox="0 0 800 493" fill="none" xmlns="http://www.w3.org/2000/svg">
<path d="M661.683 56.0357C661.681 56.0472 635.021 57.54 633.476 57.748C545.494 69.4045 499.448 130.249 433.438 179.057C276.903 294.802 68.6952 320.923 -120.229 269.652C-137.479 264.972 -154.56 259.678 -171.434 253.804C-185.545 248.89 -199.521 243.596 -213.352 237.957L-115.252 -223L682.626 -42.3702C682.626 -42.3702 661.7 55.9552 661.683 56.0357Z" fill="#9EBCE4" fill-opacity="0.1"/>
<path d="M-23.729 73.5695C-23.729 73.5695 56.7585 51.3767 220.687 198.082C220.687 198.082 523.221 496.376 880.535 291.951L755.622 -295L-44.9535 -124.624L-2.96836 72.659" fill="#9EBCE4" fill-opacity="0.2"/>
<path d="M-15.8531 28.0357C-15.8506 28.0472 10.8092 29.54 12.3541 29.748C100.336 41.4045 146.382 102.249 212.392 151.057C368.927 266.802 577.135 292.923 766.059 241.652C783.309 236.972 800.39 231.678 817.264 225.804C831.375 220.89 845.351 215.596 859.182 209.957L761.082 -251L-36.7955 -70.3702C-36.7955 -70.3702 -15.8702 27.9552 -15.8531 28.0357Z" fill="#9EBCE4" fill-opacity="0.3"/>
<path d="M832.683 -15.9643C832.681 -15.9528 806.021 -14.46 804.476 -14.252C716.494 -2.59548 670.449 58.2488 604.439 107.057C447.903 222.802 239.695 248.923 50.7708 197.652C33.5213 192.972 16.4399 187.678 -0.43423 181.804C-14.545 176.89 -28.5207 171.596 -42.3516 165.957L55.7478 -295L853.626 -114.37C853.626 -114.37 832.7 -16.0448 832.683 -15.9643Z" fill="#9EBCE4" fill-opacity="0.2"/>
<path d="M-25.1699 9.90802C-25.8762 6.58928 69.4609 20.0571 74.7132 21.495C130.52 36.782 180.038 67.043 229.739 94.6214C389.149 183.066 592.15 180.219 755.286 94.6349C762.696 90.7467 822.022 61 820.655 54.5772L755.623 -251L-42.2545 -70.3703C-42.2545 -70.3703 -25.1724 9.89652 -25.1699 9.90802Z" fill="#9EBCE4" fill-opacity="0.6"/>
</svg>
